<svg xmlns="http://www.w3.org/2000/svg" viewBox="0 0 191 47.72"><defs><style>.cls-1{fill:#00bce7;}.cls-2{fill:#231f20;}</style></defs><title>My Lan 191px X 48px</title><g id="Layer_2" data-name="Layer 2"><g id="Layer_1-2" data-name="Layer 1"><path class="cls-1" d="M6.33,6.79v.66h.16A1.77,1.77,0,0,1,8.14,9.11v27.3A3.72,3.72,0,0,0,12,40.05h0A3.83,3.83,0,0,0,16,36.41V9.63A1.65,1.65,0,0,1,17.61,8h0a1.65,1.65,0,0,1,1.64,1.66l0,26.78a3.77,3.77,0,0,0,3.89,3.64h0a3.72,3.72,0,0,0,3.9-3.64V9.63A1.76,1.76,0,0,1,28.73,8h0a1.65,1.65,0,0,1,1.64,1.66V36.41a3.75,3.75,0,0,0,3.9,3.64h0a3.72,3.72,0,0,0,3.89-3.64V9.11a1.66,1.66,0,0,1,1.65-1.66h.25V6.79Z"/><path class="cls-2" d="M185.42,18h.87c.75,0,1.42,0,1.42-.87s-.61-.82-1.18-.82h-1.11Zm-.84-2.35h2.08c1.28,0,1.89.49,1.89,1.52a1.38,1.38,0,0,1-1.41,1.45L188.67,21h-.9l-1.46-2.29h-.89V21h-.83Zm1.8,6.53a3.76,3.76,0,0,0,3.78-3.9,3.8,3.8,0,1,0-7.59,0,3.78,3.78,0,0,0,3.81,3.9m0-8.43a4.55,4.55,0,1,1-4.64,4.54,4.56,4.56,0,0,1,4.64-4.54"/><path class="cls-2" d="M41.22,0a5,5,0,0,1,5,4.92V40.69a5,5,0,0,1-5,4.92H5a5,5,0,0,1-5-4.92V4.92A5,5,0,0,1,5,0ZM4.87,1.84a3,3,0,0,0-3,3v36a3,3,0,0,0,3,3H41.34a3,3,0,0,0,3-3V4.8a3,3,0,0,0-3-3Zm152.6,37.57H164V27c0-4.8,1.53-6.76,5.09-6.76,3,0,4.21,1.92,4.21,5.8V39.41h6.57V24.89c0-5.84-1.76-9.72-8.74-9.72a8.59,8.59,0,0,0-7.31,3.92h-.14V15.81h-6.24ZM137.76,23.07c.23-2.56,1.84-3.56,4.35-3.56,2.3,0,4.25.41,4.25,3.19s-3.74,2.51-7.77,3.11-8.15,1.82-8.15,7.17c0,4.83,3.62,7.07,8.15,7.07a11.08,11.08,0,0,0,8-2.92,9.71,9.71,0,0,0,.46,2.28h6.66c-.6-1-.83-3.1-.83-5.25V21.88c0-5.66-5.73-6.71-10.5-6.71-5.37,0-10.87,1.82-11.24,7.9Zm8.6,7.21c0,1.42-.18,5.43-5.32,5.43-2.13,0-4-.59-4-3s1.85-3.06,3.88-3.47,4.35-.41,5.46-1.37Zm-26.09,9.13h6.57V6.81h-6.57Zm-2.83-23.6h-6.79L105.42,32h-.09L99.91,15.81h-7L101.3,38c.74,1.87,0,4.2-2.26,4.43a37,37,0,0,1-3.84-.23v5.34a38.54,38.54,0,0,0,4,.23c4.53,0,6.8-1.55,8.23-5.34ZM54,6.81H64.26L72,29.23h.09L79.39,6.81H89.61v32.6h-6.8V16.31h-.09l-8.09,23.1H69l-8.1-22.87h-.1V39.41H54Z"/></g></g></svg>